# xmcd
#
# Track frame offsets:
#	150
#	10618
#	23348
#	43574
#	60905
#	77856
#	94072
#	109559
#
# Disc length: 2097 seconds
#
# Revision: 0
# Processed by: cddbd v1.4PL0 Copyright (c) Steve Scherf et al.
# Submitted via: dBpowerAMP V4.0
#
DISCID=48082f08
DTITLE=Michael Martin Murphey - Cowboy Christmas III
DYEAR=2002
DGENRE=Country
TTITLE0=Are You Going Home For Christmas? (recited by Sarah Rische)
TTITLE1=The Old Times Christmas (recited by Michael Martin Murphey)
TTITLE2=Draggin' In The Christmas Tree (recited by Michael Martin Murphey)
TTITLE3=The Kill Pen (sung by Michael Martin Murphey)
TTITLE4=Doc's Morning Star Ranch Christmas Trilogy (recited by Michael Martin Murphey)
TTITLE5=The Cowboy's Christmas Prayer (recited by Michael Martin Murphey)
TTITLE6=The Night Before Cowboy Christmas (recited by Michael Martin Murphey)
TTITLE7=Riding The River Styx (recited by Michael Martin Murphey)
EXTD=
EXTT0=
EXTT1=
EXTT2=
EXTT3=
EXTT4=
EXTT5=
EXTT6=
EXTT7=
PLAYORDER=
